<svg width="58" height="59" viewBox="0 0 58 59" fill="none" xmlns="http://www.w3.org/2000/svg">
<path d="M56.34 50.71L56 50.4L44.79 41C46.0852 38.8979 46.7776 36.4802 46.7917 34.0112C46.8058 31.5422 46.1411 29.1168 44.87 27V12.66C44.8731 12.6267 44.8731 12.5933 44.87 12.56C44.8747 12.5403 44.8747 12.5197 44.87 12.5C44.8425 12.277 44.7361 12.0713 44.57 11.92L32.93 0.29C32.7353 0.10578 32.478 0.00216 32.21 0H5C3.67392 0 2.40215 0.52678 1.46447 1.46447C0.52678 2.40215 0 3.67392 0 5V53C0 54.3261 0.52678 55.5979 1.46447 56.5355C2.40215 57.4732 3.67392 58 5 58H39.87C41.1961 58 42.4679 57.4732 43.4055 56.5355C44.3432 55.5979 44.87 54.3261 44.87 53V50.83L49.73 56.64C53.78 61.3 60.52 55.24 56.34 50.71ZM41.46 42.07C39.5844 43.9499 37.1147 45.1208 34.4721 45.3829C31.8295 45.645 29.1778 44.9821 26.9695 43.5071C24.7612 42.0322 23.1331 39.8368 22.363 37.2953C21.5928 34.7539 21.7284 32.024 22.7465 29.5714C23.7647 27.1188 25.6023 25.0954 27.9458 23.8465C30.2894 22.5976 32.9937 22.2006 35.5973 22.7232C38.2009 23.2458 40.5425 24.6557 42.2226 26.7122C43.9027 28.7687 44.8172 31.3445 44.81 34C44.8114 35.4996 44.5161 36.9846 43.9412 38.3696C43.3662 39.7546 42.523 41.0122 41.46 42.07ZM33.21 3.41L41.45 11.66H33.21V3.41ZM42.87 53C42.87 53.7956 42.5539 54.5587 41.9913 55.1213C41.4287 55.6839 40.6656 56 39.87 56H5C4.20435 56 3.44129 55.6839 2.87868 55.1213C2.31607 54.5587 2 53.7956 2 53V5C2 4.20435 2.31607 3.44129 2.87868 2.87868C3.44129 2.31607 4.20435 2 5 2H31.21V12.66C31.21 12.9252 31.3154 13.1796 31.5029 13.3671C31.6904 13.5546 31.9448 13.66 32.21 13.66H42.87V24.46C40.4039 21.9931 37.0754 20.5816 33.5877 20.5237C30.1001 20.4659 26.7265 21.7662 24.18 24.15H8.9C8.6348 24.15 8.3804 24.2554 8.1929 24.4429C8.0054 24.6304 7.9 24.8848 7.9 25.15C7.9 25.4152 8.0054 25.6696 8.1929 25.8571C8.3804 26.0446 8.6348 26.15 8.9 26.15H22.43C21.4206 27.5483 20.6968 29.1318 20.3 30.81H8.9C8.6348 30.81 8.3804 30.9154 8.1929 31.1029C8.0054 31.2904 7.9 31.5448 7.9 31.81C7.9 32.0752 8.0054 32.3296 8.1929 32.5171C8.3804 32.7046 8.6348 32.81 8.9 32.81H20C19.8693 34.3726 20.0114 35.9461 20.42 37.46H8.9C8.6348 37.46 8.3804 37.5654 8.1929 37.7529C8.0054 37.9404 7.9 38.1948 7.9 38.46C7.9 38.7252 8.0054 38.9796 8.1929 39.1671C8.3804 39.3546 8.6348 39.46 8.9 39.46H21.09C21.7575 40.9485 22.6892 42.3038 23.84 43.46C24.07 43.68 24.3 43.88 24.54 44.09H8.9C8.6348 44.09 8.3804 44.1954 8.1929 44.3829C8.0054 44.5704 7.9 44.8248 7.9 45.09C7.9 45.3552 8.0054 45.6096 8.1929 45.7971C8.3804 45.9846 8.6348 46.09 8.9 46.09H27.6C29.6166 47.0498 31.8411 47.4904 34.0714 47.3716C36.3016 47.2529 38.4667 46.5786 40.37 45.41L42.87 48.41V53ZM54.87 55.58C54.6259 55.8223 54.3335 56.0104 54.0118 56.1322C53.6902 56.254 53.3465 56.3067 53.0032 56.2869C52.6598 56.2671 52.3245 56.1752 52.019 56.0172C51.7135 55.8592 51.4446 55.6387 51.23 55.37L42 44.28C42.3 44.03 43.38 42.95 43.62 42.67L54.7 51.93C54.9703 52.1447 55.1922 52.414 55.3512 52.7204C55.5102 53.0268 55.6026 53.3634 55.6224 53.708C55.6423 54.0526 55.589 54.3975 55.4663 54.7201C55.3435 55.0427 55.1539 55.3358 54.91 55.58H54.87Z" fill="#C9AB8B"/>
<path d="M8.8999 19.4902H22.4399C22.7051 19.4902 22.9595 19.3848 23.147 19.1973C23.3346 19.0098 23.4399 18.7554 23.4399 18.4902C23.4399 18.225 23.3346 17.9706 23.147 17.7831C22.9595 17.5956 22.7051 17.4902 22.4399 17.4902H8.8999C8.6347 17.4902 8.3804 17.5956 8.1928 17.7831C8.0053 17.9706 7.8999 18.225 7.8999 18.4902C7.8999 18.7554 8.0053 19.0098 8.1928 19.1973C8.3804 19.3848 8.6347 19.4902 8.8999 19.4902Z" fill="#C9AB8B"/>
</svg>
