<svg width="64" height="37" viewBox="0 0 64 37" fill="none" xmlns="http://www.w3.org/2000/svg">
<path d="M50.96 7.38138C50.9496 7.48032 50.9184 7.57405 50.8715 7.66778C50.8194 7.8865 50.7934 8.13645 50.7934 8.41244C50.7934 8.43848 50.7986 8.46452 50.7986 8.49055V26.5811C51.0277 27.1487 51.3089 27.5757 51.6474 27.8413C51.9598 28.0912 52.3452 28.211 52.8139 28.1902C52.8451 28.185 52.8815 28.185 52.9128 28.185H58.0994C58.1098 28.185 58.1254 28.185 58.141 28.185C58.9482 28.2266 59.5314 28.0079 59.922 27.5601C60.3646 27.0498 60.6198 26.2322 60.7083 25.1334V25.1178L62.2861 8.79779C62.2861 8.77176 62.2861 8.74572 62.2913 8.71968C62.4007 7.79276 62.1976 7.1887 61.7394 6.8346C61.2134 6.42842 60.3438 6.26178 59.2138 6.26178C59.1877 6.26178 59.1617 6.26699 59.1357 6.26699H53.2929V6.26178C52.4025 6.26178 51.7463 6.43884 51.3454 6.80335C51.1787 6.95437 51.0537 7.14704 50.96 7.38138ZM45.2423 27.3935C45.1173 27.2737 45.0288 27.1175 44.9923 26.9456L36.6605 11.9483C35.7335 10.4017 34.9004 10.3652 34.0932 10.8443C33.5204 11.1828 32.9163 11.7348 32.3123 12.2868C31.9478 12.62 31.5832 12.9533 31.276 13.2085L29.844 14.3906L29.8335 14.3958C28.7921 15.2342 27.6152 15.6872 26.5008 15.7757C25.7666 15.8382 25.0584 15.7445 24.4126 15.4997C23.7513 15.2498 23.1681 14.8488 22.7306 14.302C22.2568 13.7136 21.9443 12.9637 21.8714 12.0785H21.8766C21.861 11.865 21.9235 11.6515 22.0693 11.4744L26.6206 6.05869C25.6624 6.04307 24.8136 6.17326 24.0169 6.42321C22.8035 6.80335 21.6683 7.45949 20.429 8.3083C20.2884 8.41765 20.1061 8.48535 19.9134 8.48535H14.6696V18.395L14.6904 24.7325H17.7419C18.0336 24.7325 18.3148 24.8835 18.4658 25.1543L22.2568 31.7625C22.8088 32.7258 23.2982 33.559 23.9075 34.1058C24.4803 34.6213 25.2302 34.939 26.3862 34.9702C26.8185 34.9807 27.2351 34.9077 27.6256 34.7463C27.8651 34.6474 28.1047 34.512 28.339 34.3401L25.8811 29.7472C25.6624 29.341 25.8186 28.8359 26.2248 28.6224C26.631 28.4037 27.1361 28.5599 27.3496 28.9661L30.021 33.96C31.0156 34.4651 31.9165 34.6213 32.7237 34.4495C33.4631 34.2881 34.1609 33.8454 34.817 33.1268L30.9688 27.0862C30.724 26.7009 30.8334 26.1853 31.2239 25.9354C31.6093 25.6906 32.1248 25.8 32.3748 26.1905L36.4261 32.554C37.1395 32.8456 37.8217 32.9081 38.4726 32.731C39.0923 32.5592 39.7172 32.1634 40.3369 31.5177L36.6657 24.6023C36.447 24.1961 36.6032 23.6858 37.0146 23.4723C37.4207 23.2536 37.9311 23.4098 38.1446 23.8212L41.946 30.9762C42.4407 31.2626 43.0135 31.3355 43.5603 31.2469C44.0394 31.1688 44.5028 30.9605 44.883 30.6637C45.2475 30.3721 45.5339 29.9972 45.6693 29.5702C45.8203 29.1067 45.8047 28.5651 45.5599 27.9767L45.2423 27.3935ZM46.3462 25.9458H49.127V8.49055C49.127 8.46973 49.127 8.44369 49.1322 8.42286C49.1322 8.15207 49.1478 7.8917 49.1843 7.64695L46.3515 5.76708C46.3358 5.75666 46.3202 5.74625 46.3046 5.73584C45.9349 5.49109 45.4922 5.17864 45.0496 4.8662C43.4405 3.7414 41.7898 2.58014 40.0036 2.11148C39.0403 1.85631 37.9259 1.68968 36.7906 1.66885C35.796 1.64802 34.7858 1.74175 33.8328 1.99171C33.2652 2.13751 32.7132 2.3406 32.2029 2.61139C31.7499 2.85093 31.3281 3.14254 30.9531 3.49665L29.0576 5.75146C29.0004 5.86602 28.917 5.95975 28.8181 6.03786L23.5899 12.2659C23.668 12.6617 23.8242 12.995 24.0377 13.2658C24.2877 13.573 24.6209 13.8021 25.0011 13.9479C25.4072 14.0989 25.8759 14.1562 26.3654 14.1146C27.1621 14.0469 28.0162 13.7188 28.7817 13.1043L30.2137 11.9222C30.5782 11.6202 30.8854 11.339 31.1927 11.063C31.8644 10.4485 32.531 9.83927 33.2392 9.41747C34.8691 8.44369 36.4938 8.41244 38.0977 11.1047L38.1133 11.1307L46.3462 25.9458ZM49.4395 27.6174H47.2159C47.5179 28.4974 47.5023 29.3306 47.2628 30.0701C47.018 30.8303 46.5389 31.4761 45.9244 31.9656C45.3256 32.4394 44.5966 32.7675 43.8311 32.8925C43.0864 33.0175 42.3053 32.9498 41.5763 32.6477C40.7327 33.5278 39.8422 34.085 38.9153 34.3401C37.9831 34.5953 37.0406 34.5432 36.0877 34.21C35.1816 35.215 34.1817 35.8451 33.0778 36.0794C31.953 36.3242 30.7605 36.1523 29.4951 35.5587C29.0993 35.8659 28.6879 36.1107 28.2557 36.2877C27.6464 36.5429 27.0059 36.6574 26.3342 36.6366C24.7303 36.5897 23.6524 36.1159 22.7931 35.3452C21.9704 34.6109 21.4236 33.6736 20.7987 32.5905L17.2524 26.404H14.5029C14.3415 27.2008 14.0655 27.8777 13.6489 28.4193C12.9459 29.3254 11.9201 29.8045 10.4932 29.7732C10.4776 29.7732 10.462 29.7732 10.4464 29.7732H5.73365C4.54636 29.9659 3.53092 29.6743 2.73418 28.7526C2.02597 27.935 1.54689 26.6071 1.3386 24.6596C1.33339 24.6387 1.33339 24.6127 1.32818 24.5867L0.0888173 9.2248C-0.155931 7.56884 0.114854 6.39718 0.781403 5.59523C1.45316 4.78809 2.4686 4.42357 3.71318 4.36629C3.74963 4.36108 3.78087 4.36108 3.81732 4.36108H10.1652V4.36629C11.3629 4.35066 12.3939 4.55375 13.175 5.05887C13.8051 5.46505 14.2582 6.03786 14.4873 6.81898H19.6583C20.9601 5.94413 22.1734 5.25675 23.517 4.83495C24.8396 4.42357 26.2509 4.27776 27.9433 4.48085L29.6877 2.41871C29.719 2.37706 29.7502 2.3406 29.7919 2.30415C30.2866 1.83548 30.8386 1.45014 31.4322 1.13769C32.0571 0.809625 32.7237 0.559669 33.4215 0.37741C34.5254 0.0910021 35.6867 -0.0183536 36.8219 0.00247606C38.1081 0.0285131 39.3579 0.21598 40.4358 0.49718C42.498 1.04396 44.2789 2.28853 46.0078 3.50186C46.3931 3.77264 46.7785 4.04343 47.2367 4.34546C47.2523 4.35587 47.268 4.36629 47.2836 4.3767L49.7936 6.05349C49.9185 5.87644 50.0643 5.71501 50.231 5.5692C50.9496 4.92348 51.9755 4.60583 53.2981 4.60583V4.60062H59.1409C59.1617 4.60062 59.1877 4.60062 59.2086 4.60583C60.7031 4.60062 61.9216 4.87141 62.7652 5.52233C63.7025 6.24616 64.1452 7.34492 63.9577 8.92277C63.9577 8.93839 63.9525 8.94881 63.9525 8.96443L62.3747 25.2688C62.2601 26.7269 61.8695 27.8673 61.1822 28.6589C60.4479 29.5025 59.4325 29.919 58.0994 29.8618H52.9128H52.9076C52.0119 29.9086 51.2464 29.6639 50.6059 29.1536C50.1372 28.7734 49.7467 28.2631 49.4395 27.6174ZM7.29587 21.28C7.92076 21.28 8.42588 21.7851 8.42588 22.41C8.42588 23.0349 7.92076 23.54 7.29587 23.54C6.67098 23.54 6.16587 23.0349 6.16587 22.41C6.16587 21.7851 6.67098 21.28 7.29587 21.28ZM56.4799 21.28C57.1048 21.28 57.6099 21.7851 57.6099 22.41C57.6099 23.0349 57.1048 23.54 56.4799 23.54C55.855 23.54 55.3499 23.0349 55.3499 22.41C55.3499 21.7851 55.855 21.28 56.4799 21.28ZM12.998 16.4683L12.9667 7.65216C12.9667 7.63654 12.9667 7.62092 12.9667 7.60009C12.8782 7.0481 12.6387 6.67838 12.2846 6.44925C11.8003 6.13681 11.0765 6.01704 10.186 6.02745H10.1756V6.03266H3.82253C3.81212 6.03266 3.8017 6.03266 3.79129 6.03266C3.00497 6.06911 2.40612 6.25658 2.06763 6.66275C1.70311 7.09497 1.57814 7.84484 1.74998 9.00609C1.75519 9.03213 1.75519 9.05296 1.75519 9.07899L2.99455 24.4565V24.4825C3.16119 26.076 3.50488 27.0966 3.98917 27.659C4.37452 28.1069 4.90046 28.2318 5.53056 28.1173C5.57743 28.1069 5.6295 28.1017 5.67637 28.1017V28.0965H10.4412C10.4724 28.0965 10.5036 28.0965 10.5297 28.1017C11.3733 28.1173 11.9565 27.8673 12.321 27.3935C12.748 26.8415 12.9563 25.977 12.9876 24.8627H12.9824V16.4683H12.998Z" fill="#C9AB8B"/>
</svg>
