<svg width="64" height="64" viewBox="0 0 64 64" fill="none" xmlns="http://www.w3.org/2000/svg">
<g clip-path="url(#clip0_1428_913)">
<rect width="64" height="64" rx="32" fill="#C9AB8B"/>
<path d="M39.4818 24.408H29.4978V28.824C29.9244 28.3547 30.5218 27.9707 31.2898 27.672C32.0578 27.3733 32.8898 27.224 33.7858 27.224C35.3858 27.224 36.7084 27.5867 37.7537 28.312C38.8204 29.0373 39.5991 29.976 40.0898 31.128C40.5804 32.28 40.8258 33.528 40.8258 34.872C40.8258 37.368 40.1218 39.352 38.7138 40.824C37.3058 42.2747 35.3218 43 32.7618 43C31.0551 43 29.5724 42.712 28.3138 42.136C27.0551 41.5387 26.0844 40.7173 25.4018 39.672C24.7191 38.6267 24.3458 37.4213 24.2818 36.056H29.6258C29.7538 36.7173 30.0631 37.272 30.5538 37.72C31.0444 38.1467 31.7164 38.36 32.5698 38.36C33.5724 38.36 34.3191 38.04 34.8098 37.4C35.3004 36.76 35.5458 35.9067 35.5458 34.84C35.5458 33.7947 35.2898 32.9947 34.7778 32.44C34.2658 31.8853 33.5191 31.608 32.5378 31.608C31.8124 31.608 31.2151 31.7893 30.7458 32.152C30.2764 32.4933 29.9671 32.952 29.8177 33.528H24.5378V19.608H39.4818V24.408Z" fill="white"/>
</g>
<defs>
<clipPath id="clip0_1428_913">
<rect width="64" height="64" rx="32" fill="white"/>
</clipPath>
</defs>
</svg>
