<svg width="64" height="64" viewBox="0 0 64 64" fill="none" xmlns="http://www.w3.org/2000/svg">
<g clip-path="url(#clip0_1428_915)">
<rect width="64" height="64" rx="32" fill="#C9AB8B"/>
<path d="M34.8045 25.944C34.6338 25.1547 34.3352 24.568 33.9085 24.184C33.4818 23.7787 32.8738 23.576 32.0845 23.576C30.8685 23.576 29.9938 24.1093 29.4605 25.176C28.9272 26.2213 28.6498 27.8853 28.6285 30.168C29.0978 29.4213 29.7698 28.8347 30.6445 28.408C31.5405 27.9813 32.5218 27.768 33.5885 27.768C35.6792 27.768 37.3538 28.4293 38.6125 29.752C39.8925 31.0747 40.5325 32.92 40.5325 35.288C40.5325 36.8453 40.2125 38.2107 39.5725 39.384C38.9538 40.5573 38.0365 41.4747 36.8205 42.136C35.6258 42.7973 34.2072 43.128 32.5645 43.128C29.2792 43.128 26.9965 42.104 25.7165 40.056C24.4365 37.9867 23.7965 35.0213 23.7965 31.16C23.7965 27.1067 24.4685 24.0987 25.8125 22.136C27.1778 20.152 29.3538 19.16 32.3405 19.16C33.9405 19.16 35.2845 19.48 36.3725 20.12C37.4818 20.7387 38.3138 21.56 38.8685 22.584C39.4445 23.608 39.7858 24.728 39.8925 25.944H34.8045ZM32.2765 32.088C31.3592 32.088 30.5912 32.3653 29.9725 32.92C29.3752 33.4533 29.0765 34.2213 29.0765 35.224C29.0765 36.248 29.3538 37.048 29.9085 37.624C30.4845 38.2 31.2952 38.488 32.3405 38.488C33.2792 38.488 34.0152 38.2107 34.5485 37.656C35.1032 37.08 35.3805 36.3013 35.3805 35.32C35.3805 34.3173 35.1138 33.528 34.5805 32.952C34.0472 32.376 33.2792 32.088 32.2765 32.088Z" fill="white"/>
</g>
<defs>
<clipPath id="clip0_1428_915">
<rect width="64" height="64" rx="32" fill="white"/>
</clipPath>
</defs>
</svg>
