<svg width="64" height="64" viewBox="0 0 64 64" fill="none" xmlns="http://www.w3.org/2000/svg">
<g clip-path="url(#clip0_1428_909)">
<rect width="64" height="64" rx="32" fill="#C9AB8B"/>
<path d="M23.9445 26.232C24.0298 23.9493 24.7765 22.1893 26.1845 20.952C27.5925 19.7147 29.5018 19.096 31.9125 19.096C33.5125 19.096 34.8778 19.3733 36.0085 19.928C37.1605 20.4827 38.0245 21.24 38.6005 22.2C39.1978 23.16 39.4965 24.2373 39.4965 25.432C39.4965 26.84 39.1445 27.992 38.4405 28.888C37.7365 29.7627 36.9152 30.36 35.9765 30.68V30.808C37.1925 31.2133 38.1525 31.8853 38.8565 32.824C39.5605 33.7627 39.9125 34.968 39.9125 36.44C39.9125 37.7627 39.6032 38.936 38.9845 39.96C38.3872 40.9627 37.5018 41.752 36.3285 42.328C35.1765 42.904 33.8005 43.192 32.2005 43.192C29.6405 43.192 27.5925 42.5627 26.0565 41.304C24.5418 40.0453 23.7418 38.1467 23.6565 35.608H28.9685C28.9898 36.5467 29.2565 37.2933 29.7685 37.848C30.2805 38.3813 31.0272 38.648 32.0085 38.648C32.8405 38.648 33.4805 38.4133 33.9285 37.944C34.3978 37.4533 34.6325 36.8133 34.6325 36.024C34.6325 35 34.3018 34.264 33.6405 33.816C33.0005 33.3467 31.9658 33.112 30.5365 33.112H29.5125V28.664H30.5365C31.6245 28.664 32.4992 28.4827 33.1605 28.12C33.8432 27.736 34.1845 27.064 34.1845 26.104C34.1845 25.336 33.9712 24.7387 33.5445 24.312C33.1178 23.8853 32.5312 23.672 31.7845 23.672C30.9738 23.672 30.3658 23.9173 29.9605 24.408C29.5765 24.8987 29.3525 25.5067 29.2885 26.232H23.9445Z" fill="white"/>
</g>
<defs>
<clipPath id="clip0_1428_909">
<rect width="64" height="64" rx="32" fill="white"/>
</clipPath>
</defs>
</svg>
