<svg width="98" height="98" viewBox="0 0 98 98" fill="none" xmlns="http://www.w3.org/2000/svg">
                        <path d="M94.5759 91.7167H90.5067V19.827C90.5067 18.998 90.2494 18.203 89.7915 17.6168C89.3337 17.0306 88.7126 16.7013 88.0651 16.7013H70.9741V3.15689C70.9741 2.32792 70.7169 1.5329 70.259 0.946729C69.8011 0.360557 69.1801 0.03125 68.5325 0.03125H29.4674C28.8199 0.03125 28.1988 0.360557 27.741 0.946729C27.2831 1.5329 27.0258 2.32792 27.0258 3.15689V33.3714H9.93485C9.2873 33.3714 8.66628 33.7007 8.20839 34.2869C7.75051 34.8731 7.49328 35.6681 7.49328 36.4971V91.7167H3.42399C2.77645 91.7167 2.15542 92.046 1.69754 92.6322C1.23966 93.2184 0.982422 94.0134 0.982422 94.8424C0.982422 95.6713 1.23966 96.4664 1.69754 97.0525C2.15542 97.6387 2.77645 97.968 3.42399 97.968H94.5759C95.2235 97.968 95.8445 97.6387 96.3024 97.0525C96.7603 96.4664 97.0175 95.6713 97.0175 94.8424C97.0175 94.0134 96.7603 93.2184 96.3024 92.6322C95.8445 92.046 95.2235 91.7167 94.5759 91.7167ZM12.3764 39.6227H29.4674C30.115 39.6227 30.736 39.2934 31.1939 38.7072C31.6517 38.1211 31.909 37.326 31.909 36.4971V6.28253H66.091V19.827C66.091 20.656 66.3482 21.451 66.8061 22.0371C67.264 22.6233 67.885 22.9526 68.5325 22.9526H85.6235V91.7167H57.9524V69.8372C57.9524 69.0083 57.6952 68.2132 57.2373 67.6271C56.7794 67.0409 56.1584 66.7116 55.5108 66.7116H42.4891C41.8416 66.7116 41.2206 67.0409 40.7627 67.6271C40.3048 68.2132 40.0475 69.0083 40.0475 69.8372V91.7167H12.3764V39.6227ZM53.0693 91.7167H44.9307V72.9629H53.0693V91.7167ZM43.303 19.827C43.303 18.998 43.5602 18.203 44.0181 17.6168C44.476 17.0306 45.097 16.7013 45.7445 16.7013H52.2554C52.9029 16.7013 53.524 17.0306 53.9818 17.6168C54.4397 18.203 54.697 18.998 54.697 19.827C54.697 20.656 54.4397 21.451 53.9818 22.0371C53.524 22.6233 52.9029 22.9526 52.2554 22.9526H45.7445C45.097 22.9526 44.476 22.6233 44.0181 22.0371C43.5602 21.451 43.303 20.656 43.303 19.827ZM43.303 36.4971C43.303 35.6681 43.5602 34.8731 44.0181 34.2869C44.476 33.7007 45.097 33.3714 45.7445 33.3714H52.2554C52.9029 33.3714 53.524 33.7007 53.9818 34.2869C54.4397 34.8731 54.697 35.6681 54.697 36.4971C54.697 37.326 54.4397 38.1211 53.9818 38.7072C53.524 39.2934 52.9029 39.6227 52.2554 39.6227H45.7445C45.097 39.6227 44.476 39.2934 44.0181 38.7072C43.5602 38.1211 43.303 37.326 43.303 36.4971ZM66.091 36.4971C66.091 35.6681 66.3482 34.8731 66.8061 34.2869C67.264 33.7007 67.885 33.3714 68.5325 33.3714H75.0434C75.6909 33.3714 76.312 33.7007 76.7698 34.2869C77.2277 34.8731 77.485 35.6681 77.485 36.4971C77.485 37.326 77.2277 38.1211 76.7698 38.7072C76.312 39.2934 75.6909 39.6227 75.0434 39.6227H68.5325C67.885 39.6227 67.264 39.2934 66.8061 38.7072C66.3482 38.1211 66.091 37.326 66.091 36.4971ZM31.909 53.1672C31.909 53.9961 31.6517 54.7911 31.1939 55.3773C30.736 55.9635 30.115 56.2928 29.4674 56.2928H22.9566C22.309 56.2928 21.688 55.9635 21.2301 55.3773C20.7722 54.7911 20.515 53.9961 20.515 53.1672C20.515 52.3382 20.7722 51.5432 21.2301 50.957C21.688 50.3708 22.309 50.0415 22.9566 50.0415H29.4674C30.115 50.0415 30.736 50.3708 31.1939 50.957C31.6517 51.5432 31.909 52.3382 31.909 53.1672ZM31.909 69.8372C31.909 70.6662 31.6517 71.4612 31.1939 72.0474C30.736 72.6336 30.115 72.9629 29.4674 72.9629H22.9566C22.309 72.9629 21.688 72.6336 21.2301 72.0474C20.7722 71.4612 20.515 70.6662 20.515 69.8372C20.515 69.0083 20.7722 68.2132 21.2301 67.6271C21.688 67.0409 22.309 66.7116 22.9566 66.7116H29.4674C30.115 66.7116 30.736 67.0409 31.1939 67.6271C31.6517 68.2132 31.909 69.0083 31.909 69.8372ZM43.303 53.1672C43.303 52.3382 43.5602 51.5432 44.0181 50.957C44.476 50.3708 45.097 50.0415 45.7445 50.0415H52.2554C52.9029 50.0415 53.524 50.3708 53.9818 50.957C54.4397 51.5432 54.697 52.3382 54.697 53.1672C54.697 53.9961 54.4397 54.7911 53.9818 55.3773C53.524 55.9635 52.9029 56.2928 52.2554 56.2928H45.7445C45.097 56.2928 44.476 55.9635 44.0181 55.3773C43.5602 54.7911 43.303 53.9961 43.303 53.1672ZM66.091 53.1672C66.091 52.3382 66.3482 51.5432 66.8061 50.957C67.264 50.3708 67.885 50.0415 68.5325 50.0415H75.0434C75.6909 50.0415 76.312 50.3708 76.7698 50.957C77.2277 51.5432 77.485 52.3382 77.485 53.1672C77.485 53.9961 77.2277 54.7911 76.7698 55.3773C76.312 55.9635 75.6909 56.2928 75.0434 56.2928H68.5325C67.885 56.2928 67.264 55.9635 66.8061 55.3773C66.3482 54.7911 66.091 53.9961 66.091 53.1672ZM66.091 69.8372C66.091 69.0083 66.3482 68.2132 66.8061 67.6271C67.264 67.0409 67.885 66.7116 68.5325 66.7116H75.0434C75.6909 66.7116 76.312 67.0409 76.7698 67.6271C77.2277 68.2132 77.485 69.0083 77.485 69.8372C77.485 70.6662 77.2277 71.4612 76.7698 72.0474C76.312 72.6336 75.6909 72.9629 75.0434 72.9629H68.5325C67.885 72.9629 67.264 72.6336 66.8061 72.0474C66.3482 71.4612 66.091 70.6662 66.091 69.8372Z" fill="#C9AB8B" />
                    </svg>