<svg width="64" height="64" viewBox="0 0 64 64" fill="none" xmlns="http://www.w3.org/2000/svg">
<g clip-path="url(#clip0_1428_907)">
<rect width="64" height="64" rx="32" fill="#C9AB8B"/>
<path d="M24.1074 38.616C24.8327 38.04 25.1634 37.7733 25.0994 37.816C27.19 36.088 28.8327 34.6693 30.0274 33.56C31.2434 32.4507 32.2674 31.288 33.0994 30.072C33.9314 28.856 34.3474 27.672 34.3474 26.52C34.3474 25.6453 34.1447 24.9627 33.7394 24.472C33.334 23.9813 32.726 23.736 31.9154 23.736C31.1047 23.736 30.4647 24.0453 29.9954 24.664C29.5474 25.2613 29.3234 26.1147 29.3234 27.224H24.0434C24.086 25.4107 24.47 23.896 25.1954 22.68C25.942 21.464 26.9127 20.568 28.1074 19.992C29.3234 19.416 30.6674 19.128 32.1394 19.128C34.678 19.128 36.5874 19.7787 37.8674 21.08C39.1687 22.3813 39.8194 24.0773 39.8194 26.168C39.8194 28.4507 39.0407 30.5733 37.4834 32.536C35.926 34.4773 33.942 36.376 31.5314 38.232H40.1714V42.68H24.1074V38.616Z" fill="white"/>
</g>
<defs>
<clipPath id="clip0_1428_907">
<rect width="64" height="64" rx="32" fill="white"/>
</clipPath>
</defs>
</svg>
