<svg width="64" height="64" viewBox="0 0 64 64" fill="none" xmlns="http://www.w3.org/2000/svg">
<g clip-path="url(#clip0_1428_919)">
<rect width="64" height="64" rx="32" fill="#C9AB8B"/>
<path d="M26.905 30.456C24.8997 29.3893 23.897 27.7147 23.897 25.432C23.897 24.28 24.1957 23.2347 24.793 22.296C25.3903 21.336 26.297 20.5787 27.513 20.024C28.729 19.448 30.2223 19.16 31.993 19.16C33.7637 19.16 35.2463 19.448 36.441 20.024C37.657 20.5787 38.5637 21.336 39.161 22.296C39.7583 23.2347 40.057 24.28 40.057 25.432C40.057 26.584 39.7797 27.5867 39.225 28.44C38.6917 29.2933 37.9663 29.9653 37.049 30.456C38.201 31.0107 39.0863 31.7787 39.705 32.76C40.3237 33.72 40.633 34.8507 40.633 36.152C40.633 37.6667 40.249 38.9787 39.481 40.088C38.713 41.176 37.6677 42.008 36.345 42.584C35.0437 43.16 33.593 43.448 31.993 43.448C30.393 43.448 28.9317 43.16 27.609 42.584C26.3077 42.008 25.273 41.176 24.505 40.088C23.737 38.9787 23.353 37.6667 23.353 36.152C23.353 34.8293 23.6623 33.688 24.281 32.728C24.8997 31.7467 25.7743 30.9893 26.905 30.456ZM34.745 26.264C34.745 25.3893 34.489 24.7173 33.977 24.248C33.4863 23.7573 32.825 23.512 31.993 23.512C31.161 23.512 30.489 23.7573 29.977 24.248C29.4863 24.7387 29.241 25.4213 29.241 26.296C29.241 27.128 29.497 27.7893 30.009 28.28C30.521 28.7493 31.1823 28.984 31.993 28.984C32.8037 28.984 33.465 28.7387 33.977 28.248C34.489 27.7573 34.745 27.096 34.745 26.264ZM31.993 32.824C30.9903 32.824 30.1797 33.1013 29.561 33.656C28.9423 34.1893 28.633 34.936 28.633 35.896C28.633 36.792 28.9317 37.528 29.529 38.104C30.1477 38.68 30.969 38.968 31.993 38.968C33.017 38.968 33.817 38.68 34.393 38.104C34.9903 37.528 35.289 36.792 35.289 35.896C35.289 34.9573 34.9797 34.2107 34.361 33.656C33.7637 33.1013 32.9743 32.824 31.993 32.824Z" fill="white"/>
</g>
<defs>
<clipPath id="clip0_1428_919">
<rect width="64" height="64" rx="32" fill="white"/>
</clipPath>
</defs>
</svg>
