<svg width="68" height="66" viewBox="0 0 68 66" fill="none" xmlns="http://www.w3.org/2000/svg">
<path d="M45.6364 43.3333C45.6364 40.071 36.5193 37.4286 25.2727 37.4286M45.6364 43.3333C45.6364 46.5957 36.5193 49.2381 25.2727 49.2381C14.0262 49.2381 4.90909 46.5957 4.90909 43.3333M45.6364 43.3333V57.9092C45.6364 61.272 36.5193 64 25.2727 64C14.0262 64 4.90909 61.275 4.90909 57.9092V43.3333M45.6364 43.3333C56.7607 43.3333 66 40.4193 66 37.4286V7.90476M25.2727 37.4286C14.0262 37.4286 4.90909 40.071 4.90909 43.3333M25.2727 37.4286C12.4204 37.4286 2 34.5146 2 31.5238V16.7619M25.2727 10.8571C12.4204 10.8571 2 13.4995 2 16.7619M2 16.7619C2 20.0243 12.4204 22.6667 25.2727 22.6667C25.2727 25.6574 34.736 28.5714 45.8604 28.5714C56.9818 28.5714 66 25.6574 66 22.6667M66 7.90476C66 4.64238 56.9818 2 45.8604 2C34.736 2 25.7207 4.64238 25.7207 7.90476M66 7.90476C66 11.1671 56.9818 13.8095 45.8604 13.8095C34.7389 13.8095 25.7207 11.1671 25.7207 7.90476M25.7207 7.90476V37.9187" stroke="#C9AB8B" stroke-width="3"/>
</svg>
