<svg width="59" height="100" viewBox="0 0 59 100" fill="none" xmlns="http://www.w3.org/2000/svg">
                        <path d="M1.38209 99.2862L0.601562 93.1935L15.5184 51.7208C16.3008 52.412 17.1083 52.9556 17.9409 53.3517C18.7735 53.7517 19.6349 54.0818 20.5253 54.3419L5.95542 94.9642L1.38209 99.2862ZM57.6381 99.2862L53.059 94.9642L38.4891 54.3478C39.3833 54.0837 40.2467 53.7536 41.0793 53.3576C41.9118 52.9576 42.7174 52.4139 43.496 51.7266L58.4186 93.1935L57.6381 99.2862ZM29.5101 44.399C25.5091 44.399 22.0979 42.9816 19.2765 40.1469C16.4627 37.3005 15.0558 33.8638 15.0558 29.837C15.0558 26.0508 16.2314 22.8821 18.5827 20.3309C20.9377 17.7835 23.6166 16.2632 26.6192 15.77V0.712891H32.4009V15.77C35.4036 16.2632 38.0824 17.7835 40.4375 20.3309C42.7887 22.8821 43.9643 26.0508 43.9643 29.837C43.9643 33.8677 42.5575 37.3044 39.7437 40.1469C36.9222 42.9816 33.511 44.399 29.5101 44.399ZM29.5101 38.5742C31.8883 38.5742 33.9292 37.7179 35.6329 36.0054C37.3327 34.2891 38.1826 32.2329 38.1826 29.837C38.1826 27.441 37.3327 25.3849 35.6329 23.6685C33.9292 21.956 31.8883 21.0997 29.5101 21.0997C27.1319 21.0997 25.0909 21.956 23.3873 23.6685C21.6874 25.3849 20.8375 27.441 20.8375 29.837C20.8375 32.2329 21.6874 34.2891 23.3873 36.0054C25.0909 37.7179 27.1319 38.5742 29.5101 38.5742Z" fill="#C9AB8B" />
                    </svg>