<svg width="59" height="59" viewBox="0 0 59 59" fill="none" xmlns="http://www.w3.org/2000/svg">
<path d="M57.5 55.9998H53.57V29.4998C53.57 29.102 53.412 28.7204 53.1307 28.4391C52.8494 28.1578 52.4678 27.9998 52.07 27.9998H43.26V10.4998C43.2612 10.1886 43.1656 9.8848 42.9864 9.6303C42.8072 9.3759 42.5534 9.1835 42.26 9.0798L16.57 0.0797991C16.3437 0.00313909 16.1024 -0.0187009 15.8659 0.0160691C15.6295 0.0508391 15.4047 0.141219 15.21 0.279799C15.0142 0.417129 14.8547 0.599849 14.745 0.812319C14.6352 1.02479 14.5786 1.26068 14.58 1.4998V17.6798H6.93C6.53218 17.6798 6.15064 17.8378 5.86934 18.1191C5.58804 18.4004 5.43 18.782 5.43 19.1798V55.9998H1.5C1.10218 55.9998 0.72064 56.1578 0.43934 56.4391C0.15804 56.7204 0 57.102 0 57.4998C0 57.8976 0.15804 58.2792 0.43934 58.5605C0.72064 58.8418 1.10218 58.9998 1.5 58.9998H57.5C57.8978 58.9998 58.2794 58.8418 58.5607 58.5605C58.842 58.2792 59 57.8976 59 57.4998C59 57.102 58.842 56.7204 58.5607 56.4391C58.2794 56.1578 57.8978 55.9998 57.5 55.9998ZM17.58 3.6198L40.26 11.5598V27.9998H34.57C34.1722 27.9998 33.7906 28.1578 33.5093 28.4391C33.228 28.7204 33.07 29.102 33.07 29.4998V55.9998H26.74V19.1798C26.74 18.782 26.582 18.4004 26.3007 18.1191C26.0194 17.8378 25.6378 17.6798 25.24 17.6798H17.58V3.6198ZM8.43 20.6798H23.74V55.9998H8.43V20.6798ZM36.07 55.9998V30.9998H50.57V55.9998H36.07Z" fill="#C9AB8B"/>
</svg>
