<svg width="59" height="58" viewBox="0 0 59 58" fill="none" xmlns="http://www.w3.org/2000/svg">
<rect y="56" width="59" height="2" rx="1" fill="#C9AB8B"/>
<rect x="34" y="28" width="20" height="2" rx="1" fill="#C9AB8B"/>
<rect x="6" y="18" width="20" height="2" rx="1" fill="#C9AB8B"/>
<rect x="27.1797" y="18.0098" width="39.1819" height="2" rx="1" transform="rotate(90.2629 27.1797 18.0098)" fill="#C9AB8B"/>
<rect x="17.1782" y="0.25" width="18.9227" height="2" rx="1" transform="rotate(90.2629 17.1782 0.25)" fill="#C9AB8B"/>
<rect x="43.0933" y="9.32812" width="20.4168" height="2" rx="1" transform="rotate(90.2629 43.0933 9.32812)" fill="#C9AB8B"/>
<rect x="15.6616" width="29.319" height="2" rx="1" transform="rotate(19.3143 15.6616 0)" fill="#C9AB8B"/>
<rect x="35.1333" y="28.0098" width="29.0164" height="2" rx="1" transform="rotate(90.2629 35.1333 28.0098)" fill="#C9AB8B"/>
<rect x="54.1328" y="28.0098" width="28.9191" height="2" rx="1" transform="rotate(90.2629 54.1328 28.0098)" fill="#C9AB8B"/>
<rect x="7.17969" y="18.0098" width="39.1819" height="2" rx="1" transform="rotate(90.2629 7.17969 18.0098)" fill="#C9AB8B"/>
</svg>
