<svg width="64" height="64" viewBox="0 0 64 64" fill="none" xmlns="http://www.w3.org/2000/svg">
<g clip-path="url(#clip0_1448_899)">
<path d="M45.8078 14.9007C45.8078 21.1194 36.4585 33.3781 33.2745 37.3647C33.1496 37.5219 32.9909 37.6489 32.8101 37.7361C32.6294 37.8234 32.4312 37.8687 32.2305 37.8687C32.0298 37.8687 31.8316 37.8234 31.6509 37.7361C31.4701 37.6489 31.3114 37.5219 31.1865 37.3647C28.0158 33.3754 18.6665 21.1194 18.6665 14.9007C18.6665 11.3016 20.0963 7.84983 22.6413 5.30483C25.1863 2.75984 28.638 1.33008 32.2372 1.33008C35.8363 1.33008 39.2881 2.75984 41.8331 5.30483C44.3781 7.84983 45.8078 11.3016 45.8078 14.9007Z" stroke="#C9AB8B" stroke-width="2" stroke-linecap="round" stroke-linejoin="round"/>
<path d="M37.3332 14.9005C37.3332 15.9066 37.035 16.8901 36.4761 17.7267C35.9173 18.5633 35.123 19.2154 34.1936 19.6007C33.2642 19.9859 32.2414 20.087 31.2546 19.8911C30.2677 19.6952 29.3611 19.2112 28.6494 18.5001C27.9376 17.7891 27.4526 16.883 27.2556 15.8964C27.0587 14.9098 27.1587 13.8869 27.543 12.9571C27.9273 12.0273 28.5786 11.2323 29.4146 10.6726C30.2506 10.1129 31.2338 9.81356 32.2399 9.8125C32.9084 9.81215 33.5704 9.94348 34.1882 10.199C34.806 10.4545 35.3674 10.8292 35.8403 11.3016C36.3133 11.7741 36.6886 12.3351 36.9447 12.9526C37.2009 13.5701 37.3329 14.232 37.3332 14.9005Z" stroke="#C9AB8B" stroke-width="2" stroke-linecap="round" stroke-linejoin="round"/>
<path d="M45.4935 12H50.9335C51.592 12.0003 52.2272 12.2443 52.7166 12.685C53.206 13.1256 53.515 13.7318 53.5842 14.3867L58.3575 59.72C58.3969 60.093 58.3571 60.4701 58.2409 60.8267C58.1246 61.1833 57.9344 61.5113 57.6828 61.7894C57.4311 62.0675 57.1236 62.2894 56.7804 62.4405C56.4371 62.5917 56.0659 62.6688 55.6908 62.6667H8.29616C7.92111 62.6688 7.54984 62.5917 7.2066 62.4405C6.86335 62.2894 6.55586 62.0675 6.3042 61.7894C6.05253 61.5113 5.86236 61.1833 5.7461 60.8267C5.62984 60.4701 5.5901 60.093 5.62949 59.72L10.4028 14.3867C10.4722 13.7295 10.7831 13.1215 11.2754 12.6805C11.7676 12.2395 12.406 11.997 13.0668 12H18.9788" stroke="#C9AB8B" stroke-width="2" stroke-linecap="round" stroke-linejoin="round"/>
<path d="M7.01855 46.666H56.9812" stroke="#C9AB8B" stroke-width="2" stroke-linecap="round" stroke-linejoin="round"/>
<path d="M40.0771 28H55.0185" stroke="#C9AB8B" stroke-width="2" stroke-linecap="round" stroke-linejoin="round"/>
<path d="M8.98145 28H24.3974" stroke="#C9AB8B" stroke-width="2" stroke-linecap="round" stroke-linejoin="round"/>
<path d="M18.6665 62.666L21.2585 22.666" stroke="#C9AB8B" stroke-width="2" stroke-linecap="round" stroke-linejoin="round"/>
<path d="M45.8081 62.666L43.2188 22.666" stroke="#C9AB8B" stroke-width="2" stroke-linecap="round" stroke-linejoin="round"/>
</g>
<defs>
<clipPath id="clip0_1448_899">
<rect width="64" height="64" fill="white"/>
</clipPath>
</defs>
</svg>
