<svg width="129" height="69" viewBox="0 0 129 69" fill="none" xmlns="http://www.w3.org/2000/svg">
<path d="M0 0H12.4742V68.8939H0V0ZM26.036 34.2838L40.0306 68.8905H26.5776L13.018 34.2838L26.6863 0H40.1382L26.036 34.2838ZM69.4293 21.1819V12.1157C69.4293 9.82255 68.7778 9.16801 66.3917 9.16801H61.2944C58.9072 9.16801 58.2569 9.82255 58.2569 12.1157V56.8843C58.2569 59.1763 58.9072 59.832 61.2944 59.832H66.3928C68.7789 59.832 69.4304 59.1763 69.4304 56.8843V43.3457H64.0056V34.5005H82.0133V58.1912C82.0133 64.96 78.5429 69 70.1895 69H57.4967C49.2519 69 45.6717 64.96 45.6717 58.1912V10.8099C45.6717 3.93167 49.2519 0 57.4967 0H70.1895C78.5385 0 82.0133 3.93167 82.0133 10.8099V21.1819H69.4293ZM111.21 0H91.8861V34.4469V68.8939H111.21C123.142 68.8939 129 62.2346 129 50.0061V18.8888C129 6.6604 123.142 0 111.21 0ZM117.163 50.5512C117.185 51.7255 117.044 52.8971 116.742 54.0318C115.633 58.618 112.255 59.7004 109.332 59.7004H106.316V59.7225H103.989V9.17243H105.942V9.19455H109.332C112.255 9.19455 115.633 10.2759 116.742 14.8632C117.044 15.9978 117.185 17.1695 117.163 18.3438V50.5512Z" fill="#C9AB8B"/>
</svg>
