<svg width="267" height="63" viewBox="0 0 267 63" fill="none" xmlns="http://www.w3.org/2000/svg">
<path d="M132.184 0.181209H133.94V8.72221H132.184V0.181209ZM135.84 4.56321L135.827 3.82421L141.583 8.72421H139.048L133.926 4.23621L138.48 0.181209H140.98L135.84 4.56321ZM143.193 8.72121V0.181209H148.993C149.578 0.169213 150.161 0.260614 150.715 0.451209C151.173 0.609245 151.572 0.904211 151.857 1.29621C152.145 1.73167 152.288 2.24674 152.266 2.76821C152.277 3.12297 152.205 3.47534 152.055 3.79721C151.92 4.07213 151.718 4.30845 151.467 4.48421C151.203 4.66483 150.911 4.80003 150.603 4.88421C150.262 4.97855 149.913 5.03819 149.56 5.06221L149.376 4.95621C149.886 4.95368 150.394 5.00462 150.893 5.10821C151.238 5.16961 151.552 5.34582 151.784 5.60821C152.005 5.92132 152.111 6.30102 152.084 6.68321V8.72121H150.328V6.80921C150.343 6.54512 150.283 6.28224 150.156 6.05021C150.009 5.84923 149.789 5.71417 149.543 5.67421C149.123 5.59197 148.696 5.55642 148.268 5.56821H144.956V8.72121H143.193ZM144.949 4.19321H148.988C149.396 4.22156 149.799 4.09434 150.116 3.83721C150.246 3.71405 150.349 3.56414 150.416 3.39775C150.483 3.23136 150.513 3.05243 150.505 2.87321C150.515 2.70553 150.485 2.53784 150.418 2.38408C150.35 2.23032 150.247 2.09494 150.116 1.98921C149.784 1.76669 149.387 1.66114 148.988 1.68921H144.949V4.19321ZM153.7 8.72121L157.712 0.181209H159.612L163.665 8.72121H161.75L158.24 1.02121H159.084L155.599 8.72121H153.7ZM155.825 5.39521H161.474V6.86021H155.825V5.39521ZM165.3 0.181209H167.056V8.72221H165.3V0.181209ZM168.956 4.56321L168.943 3.82421L174.699 8.72421H172.164L167.042 4.23621L171.6 0.181209H174.095L168.956 4.56321ZM180.39 8.89221C179.393 8.9185 178.402 8.73663 177.479 8.35821C176.725 8.04485 176.082 7.51392 175.631 6.83321C175.19 6.12081 174.967 5.29475 174.991 4.45721C174.967 3.61547 175.189 2.78499 175.631 2.06821C176.082 1.38807 176.725 0.857559 177.479 0.544209C179.356 -0.169439 181.43 -0.169439 183.307 0.544209C184.058 0.859088 184.699 1.3894 185.149 2.06821C185.592 2.78468 185.814 3.61538 185.789 4.45721C185.813 5.29481 185.591 6.12103 185.149 6.83321C184.699 7.51259 184.058 8.04332 183.307 8.35821C182.383 8.73782 181.389 8.91972 180.39 8.89221ZM180.39 7.37521C181.023 7.38752 181.652 7.27996 182.245 7.05821C182.749 6.86862 183.186 6.53301 183.499 6.09421C183.818 5.60945 183.977 5.037 183.954 4.45721C183.977 3.87774 183.818 3.30566 183.499 2.82121C183.185 2.38175 182.749 2.04412 182.245 1.85021C181.653 1.62444 181.023 1.51477 180.39 1.52721C179.755 1.51678 179.123 1.62637 178.529 1.85021C178.016 2.04063 177.571 2.37845 177.249 2.82121C176.925 3.30368 176.763 3.87666 176.787 4.45721C176.763 5.03809 176.925 5.61143 177.249 6.09421C177.57 6.53635 178.016 6.87215 178.529 7.05821C179.124 7.27804 179.755 7.38553 180.39 7.37521ZM190.237 8.72121L186.637 0.181209H188.578L191.628 7.74421L191.059 7.75821L193.959 0.181209H195.979L198.879 7.75821L198.312 7.74421L201.365 0.181209H203.265L199.7 8.72121H197.55L194.699 1.32121H195.253L192.389 8.72121H190.237ZM204.374 5.84421H206.156C206.197 6.15447 206.344 6.44102 206.572 6.65521C206.844 6.9149 207.171 7.10917 207.529 7.22321C207.959 7.36314 208.41 7.43072 208.862 7.42321C209.237 7.43328 209.611 7.38401 209.971 7.27721C210.222 7.20599 210.446 7.06398 210.618 6.86821C210.76 6.68814 210.834 6.46432 210.829 6.23521C210.834 6.12907 210.813 6.02328 210.767 5.92754C210.721 5.8318 210.651 5.74916 210.565 5.68721C210.311 5.52799 210.028 5.42027 209.733 5.37021C209.355 5.28621 208.858 5.20054 208.242 5.11321C207.778 5.04569 207.319 4.94544 206.869 4.81321C206.468 4.69856 206.085 4.53215 205.727 4.31821C205.414 4.13194 205.148 3.8764 204.949 3.57121C204.754 3.25689 204.655 2.89214 204.665 2.52221C204.656 2.04677 204.807 1.5821 205.093 1.20221C205.425 0.791653 205.867 0.484854 206.368 0.318209C207.035 0.0931028 207.736 -0.0115285 208.44 0.00920901C209.45 -0.0553677 210.451 0.221089 211.285 0.794209C211.61 1.04773 211.868 1.37687 212.037 1.75298C212.206 2.12909 212.281 2.54078 212.254 2.95221H210.539C210.538 2.72427 210.477 2.50062 210.362 2.30369C210.247 2.10676 210.083 1.94348 209.885 1.83021C209.42 1.58672 208.899 1.46884 208.374 1.48821C207.897 1.47164 207.422 1.55686 206.981 1.73821C206.812 1.80631 206.668 1.9256 206.57 2.07943C206.471 2.23325 206.424 2.41393 206.433 2.59621C206.43 2.74562 206.476 2.89185 206.565 3.01221C206.685 3.15348 206.84 3.26046 207.014 3.32221C207.293 3.43054 207.58 3.51452 207.873 3.57321C208.233 3.65188 208.681 3.73121 209.218 3.81121C209.68 3.87245 210.136 3.96737 210.584 4.09521C210.957 4.19748 211.313 4.35273 211.641 4.55621C211.925 4.73483 212.159 4.98256 212.321 5.27621C212.488 5.60704 212.57 5.97464 212.558 6.34521C212.57 6.82698 212.43 7.30025 212.158 7.69821C211.844 8.11409 211.411 8.42481 210.917 8.58921C210.218 8.82216 209.483 8.92949 208.746 8.90621C208.18 8.91669 207.616 8.84939 207.069 8.70621C206.626 8.58787 206.203 8.40347 205.815 8.15921C205.491 7.95556 205.201 7.70135 204.957 7.40621C204.754 7.16297 204.595 6.88614 204.488 6.58821C204.401 6.35199 204.363 6.10058 204.376 5.84921M214.5 0.181209H216.256V8.72221H214.5V0.181209ZM218.156 4.56321L218.142 3.82421L223.898 8.72421H221.364L216.242 4.23621L220.794 0.181209H223.294L218.156 4.56321ZM224.848 8.72121L228.86 0.181209H230.76L234.813 8.72121H232.9L229.389 1.02121H230.234L226.749 8.72121H224.848ZM226.973 5.39521H232.622V6.86021H226.973V5.39521ZM137.095 23.2952C136.371 23.3044 135.649 23.2111 134.951 23.0182C134.351 22.8534 133.79 22.5709 133.3 22.1872C132.841 21.8214 132.477 21.3505 132.238 20.8142C131.991 20.2094 131.865 19.5618 131.868 18.9083C131.871 18.2549 132.004 17.6085 132.257 17.0062C132.512 16.4534 132.892 15.9675 133.367 15.5872C133.876 15.1845 134.459 14.8861 135.083 14.7092C135.801 14.5027 136.546 14.4017 137.293 14.4092C138.138 14.3894 138.979 14.525 139.775 14.8092C140.411 15.0369 140.977 15.4259 141.418 15.9382C141.821 16.4286 142.059 17.0336 142.098 17.6672H140.409C140.297 17.3212 140.105 17.0068 139.847 16.7502C139.557 16.4726 139.207 16.265 138.825 16.1432C137.676 15.8073 136.449 15.8608 135.334 16.2952C134.827 16.5117 134.397 16.8754 134.1 17.3392C133.81 17.8159 133.664 18.3656 133.677 18.9232C133.663 19.4554 133.79 19.9818 134.047 20.4482C134.311 20.8908 134.712 21.2357 135.189 21.4312C135.816 21.6811 136.488 21.7982 137.163 21.7752C137.716 21.7847 138.267 21.7019 138.793 21.5302C139.226 21.3888 139.627 21.1647 139.974 20.8702C140.271 20.6203 140.503 20.3008 140.647 19.9402L141.334 19.6892C141.305 20.1945 141.176 20.6891 140.955 21.1445C140.734 21.5998 140.425 22.0069 140.046 22.3422C139.211 23.0068 138.162 23.3445 137.096 23.2922M140.884 23.1212C140.884 22.8482 140.902 22.5342 140.937 22.1772C140.972 21.8202 141.017 21.4602 141.07 21.0952C141.123 20.7302 141.17 20.3952 141.214 20.0852H137.3V18.9632H142.4V23.1212H140.884ZM144.647 23.1212V14.5802H150.442C151.028 14.5686 151.611 14.6603 152.165 14.8512C152.623 15.0095 153.021 15.3045 153.306 15.6962C153.594 16.1315 153.737 16.6467 153.715 17.1682C153.726 17.523 153.654 17.8753 153.504 18.1972C153.369 18.4721 153.168 18.7084 152.917 18.8842C152.653 19.0653 152.361 19.2005 152.052 19.2842C151.711 19.3794 151.362 19.4394 151.009 19.4632L150.825 19.3572C151.335 19.3547 151.843 19.4056 152.342 19.5092C152.687 19.5706 153.001 19.7468 153.233 20.0092C153.454 20.3223 153.56 20.702 153.533 21.0842V23.1172H151.777V21.2092C151.792 20.9451 151.732 20.6822 151.605 20.4502C151.458 20.2489 151.238 20.1138 150.992 20.0742C150.572 19.992 150.145 19.9564 149.717 19.9682H146.4V23.1232L144.647 23.1212ZM146.403 18.5932H150.442C150.849 18.6211 151.252 18.4939 151.57 18.2372C151.701 18.1143 151.803 17.9644 151.871 17.798C151.938 17.6316 151.969 17.4525 151.96 17.2732C151.97 17.1054 151.94 16.9376 151.872 16.7838C151.805 16.63 151.701 16.4947 151.57 16.3892C151.238 16.1667 150.841 16.0611 150.442 16.0892H146.4L146.403 18.5932ZM163.787 19.3462V14.5802H165.543V19.5312C165.552 20.0349 165.468 20.536 165.295 21.0092C165.146 21.412 164.909 21.777 164.603 22.0782C164.297 22.3733 163.942 22.6126 163.553 22.7852C163.136 22.9703 162.697 23.1011 162.247 23.1742C161.756 23.2547 161.259 23.2942 160.761 23.2922C160.248 23.2942 159.736 23.2548 159.23 23.1742C158.773 23.1029 158.327 22.9721 157.904 22.7852C157.518 22.6149 157.167 22.3753 156.868 22.0782C156.568 21.7739 156.337 21.4096 156.188 21.0092C156.016 20.5358 155.934 20.0347 155.944 19.5312V14.5802H157.7V19.3462C157.666 19.884 157.806 20.4186 158.1 20.8702C158.372 21.2239 158.756 21.4751 159.189 21.5832C159.704 21.7178 160.234 21.7824 160.766 21.7752C161.285 21.782 161.803 21.7174 162.304 21.5832C162.734 21.4717 163.115 21.221 163.387 20.8702C163.684 20.4197 163.824 19.8843 163.787 19.3462ZM169.487 20.3462V18.9462H173.394C173.798 18.9682 174.195 18.8335 174.503 18.5702C174.767 18.2804 174.913 17.9026 174.913 17.5107C174.913 17.1188 174.767 16.741 174.503 16.4512C174.194 16.1919 173.797 16.0596 173.394 16.0812H169.694V23.1172H167.939V14.5802H173.232C173.684 14.5776 174.135 14.6354 174.572 14.7522C174.969 14.8553 175.343 15.0346 175.672 15.2802C175.987 15.52 176.238 15.8326 176.405 16.1912C176.591 16.6104 176.681 17.0658 176.668 17.5242C176.681 17.9742 176.591 18.4212 176.405 18.8312C176.238 19.1809 175.986 19.4829 175.672 19.7092C175.341 19.942 174.967 20.1078 174.572 20.1972C174.133 20.3008 173.683 20.3518 173.232 20.3492L169.487 20.3462ZM176.826 23.1182L180.838 14.5772H182.738L186.79 23.1182H184.876L181.366 15.4182H182.21L178.725 23.1182H176.826ZM178.951 19.7922H184.6V21.2572H178.951V19.7922ZM137.068 28.9772C137.882 28.9558 138.693 29.0721 139.468 29.3212C140.045 29.5099 140.571 29.828 141.006 30.2512C141.382 30.6314 141.662 31.095 141.825 31.6042C141.989 32.1254 142.071 32.6688 142.069 33.2152C142.07 33.7676 141.979 34.3163 141.798 34.8382C141.618 35.3564 141.325 35.8278 140.94 36.2182C140.503 36.6466 139.975 36.9713 139.396 37.1682C138.645 37.419 137.857 37.5374 137.066 37.5182H132.182V28.9802L137.068 28.9772ZM133.94 36.0132H137.028C137.563 36.0284 138.097 35.9502 138.606 35.7822C138.984 35.6551 139.327 35.4402 139.606 35.1552C139.848 34.899 140.028 34.5913 140.134 34.2552C140.24 33.9178 140.294 33.566 140.293 33.2122C140.295 32.8626 140.241 32.515 140.134 32.1822C140.027 31.8551 139.847 31.557 139.606 31.3112C139.324 31.0339 138.982 30.8261 138.606 30.7042C138.097 30.5404 137.563 30.4643 137.028 30.4792H133.94V36.0132ZM145.94 33.9542V36.0542H152.526V37.5192H144.184V28.9802H152.513V30.4462H145.94V32.5712H151.325V33.9572L145.94 33.9542ZM157.582 37.5182L153.982 28.9772H155.922L158.972 36.5412L158.404 36.5542L161.304 28.9772H163.324L166.224 36.5542L165.657 36.5412L168.705 28.9772H170.605L167.04 37.5182H164.889L162.037 30.1132H162.592L159.728 37.5182H157.582ZM174.042 33.9542V36.0542H180.628V37.5192H172.287V28.9802H180.616V30.4462H174.042V32.5712H179.427V33.9572L174.042 33.9542ZM184.589 28.9772V36.0532H190.265V37.5182H182.834V28.9802L184.589 28.9772ZM196.989 37.6892C195.992 37.7156 195.001 37.5337 194.078 37.1552C193.324 36.8415 192.681 36.3107 192.23 35.6302C191.81 34.9064 191.589 34.0845 191.589 33.2477C191.589 32.4109 191.81 31.589 192.23 30.8652C192.681 30.1851 193.324 29.6546 194.078 29.3412C195.955 28.6276 198.029 28.6276 199.906 29.3412C200.657 29.6561 201.298 30.1864 201.748 30.8652C202.167 31.5894 202.387 32.4112 202.387 33.2477C202.387 34.0842 202.167 34.906 201.748 35.6302C201.298 36.3093 200.657 36.84 199.906 37.1552C198.982 37.5347 197.988 37.7166 196.989 37.6892ZM196.989 36.1722C197.621 36.1846 198.251 36.077 198.843 35.8552C199.348 35.6658 199.784 35.3301 200.097 34.8912C200.347 34.5446 200.513 34.1455 200.585 33.7244C200.657 33.3034 200.631 32.8716 200.51 32.462C200.389 32.0524 200.176 31.6759 199.887 31.3614C199.598 31.0469 199.241 30.8026 198.843 30.6472C198.252 30.4213 197.622 30.3117 196.989 30.3242C196.354 30.3137 195.722 30.4233 195.128 30.6472C194.615 30.8378 194.17 31.1752 193.847 31.6172C193.593 31.9636 193.423 32.3642 193.351 32.7874C193.279 33.2106 193.306 33.6449 193.43 34.0559C193.554 34.4669 193.772 34.8434 194.067 35.1557C194.362 35.468 194.725 35.7074 195.128 35.8552C195.723 36.0751 196.354 36.1826 196.989 36.1722ZM206.017 34.7462V33.3462H209.924C210.329 33.368 210.726 33.2334 211.034 32.9702C211.173 32.8349 211.282 32.6712 211.353 32.4902C211.423 32.3092 211.454 32.1152 211.443 31.9212C211.456 31.7241 211.426 31.5264 211.356 31.3419C211.285 31.1574 211.175 30.9903 211.034 30.8522C210.724 30.5932 210.327 30.461 209.924 30.4822H206.224V37.5182H204.469V28.9802H209.762C210.214 28.9775 210.665 29.0354 211.102 29.1522C211.499 29.2552 211.873 29.4345 212.202 29.6802C212.516 29.9203 212.767 30.2329 212.934 30.5912C213.12 31.0103 213.21 31.4658 213.198 31.9242C213.211 32.3743 213.12 32.8213 212.934 33.2312C212.767 33.5806 212.516 33.8825 212.202 34.1092C211.87 34.3417 211.497 34.5075 211.102 34.5972C210.663 34.7008 210.213 34.7519 209.762 34.7492L206.017 34.7462ZM217 33.9542V36.0542H223.586V37.5192H215.244V28.9802H223.573V30.4462H217V32.5712H222.384V33.9572L217 33.9542ZM225.791 37.5182V28.9802H231.586C232.171 28.9685 232.754 29.0603 233.308 29.2512C233.766 29.4091 234.165 29.7041 234.45 30.0962C234.738 30.5317 234.881 31.0467 234.859 31.5682C234.87 31.923 234.798 32.2753 234.648 32.5972C234.513 32.8719 234.311 33.1082 234.06 33.2842C233.797 33.4652 233.504 33.6005 233.196 33.6842C232.855 33.7794 232.506 33.8394 232.153 33.8632L231.968 33.7572C232.478 33.7549 232.987 33.8055 233.486 33.9082C233.83 33.9709 234.144 34.1469 234.377 34.4082C234.598 34.7218 234.704 35.1017 234.677 35.4842V37.5172H232.922V35.6092C232.937 35.3451 232.877 35.0822 232.75 34.8502C232.603 34.6491 232.382 34.514 232.136 34.4742C231.717 34.3919 231.289 34.3563 230.862 34.3682H227.55V37.5232L225.791 37.5182ZM227.547 32.9902H231.586C231.993 33.0181 232.396 32.8909 232.714 32.6342C232.844 32.511 232.947 32.3611 233.014 32.1948C233.081 32.0284 233.111 31.8494 233.103 31.6702C233.113 31.5025 233.083 31.3348 233.016 31.1811C232.948 31.0273 232.845 30.8919 232.714 30.7862C232.382 30.5637 231.985 30.4581 231.586 30.4862H227.547V32.9902ZM236.522 34.6402H238.3C238.341 34.9507 238.488 35.2375 238.716 35.4522C238.988 35.7115 239.315 35.9057 239.673 36.0202C240.103 36.16 240.554 36.2275 241.006 36.2202C241.381 36.2306 241.756 36.1817 242.116 36.0752C242.366 36.0042 242.591 35.8622 242.762 35.6662C242.904 35.486 242.979 35.2617 242.973 35.0322C242.978 34.9263 242.957 34.8208 242.911 34.7253C242.865 34.6298 242.796 34.5472 242.71 34.4852C242.456 34.326 242.173 34.2183 241.877 34.1682C241.5 34.0842 241.002 33.9982 240.386 33.9102C239.922 33.8434 239.463 33.7432 239.013 33.6102C238.613 33.4962 238.229 33.3298 237.872 33.1152C237.559 32.9293 237.292 32.6741 237.093 32.3692C236.898 32.0547 236.8 31.6901 236.809 31.3202C236.801 30.8446 236.952 30.3799 237.238 30.0002C237.569 29.5898 238.012 29.2831 238.512 29.1162C239.179 28.8879 239.881 28.7806 240.585 28.7992C241.594 28.7346 242.596 29.0111 243.429 29.5842C243.754 29.8376 244.013 30.1667 244.182 30.5428C244.351 30.919 244.425 31.3307 244.399 31.7422H242.68C242.679 31.5144 242.618 31.2908 242.504 31.0939C242.389 30.8969 242.225 30.7336 242.027 30.6202C241.561 30.3764 241.04 30.2582 240.515 30.2772C240.038 30.261 239.564 30.3466 239.123 30.5282C238.953 30.5961 238.809 30.7153 238.711 30.8692C238.613 31.0231 238.565 31.2039 238.575 31.3862C238.572 31.5356 238.618 31.6818 238.707 31.8022C238.826 31.9437 238.981 32.0507 239.156 32.1122C239.434 32.2204 239.721 32.3044 240.014 32.3632C240.374 32.4425 240.823 32.5219 241.36 32.6012C241.822 32.6626 242.278 32.7572 242.726 32.8842C243.099 32.987 243.455 33.1426 243.783 33.3462C244.067 33.5249 244.3 33.7726 244.462 34.0662C244.63 34.3968 244.712 34.7645 244.7 35.1352C244.712 35.617 244.572 36.0903 244.3 36.4882C243.987 36.9045 243.554 37.2154 243.059 37.3792C241.809 37.7586 240.481 37.7972 239.211 37.4912C238.768 37.3732 238.345 37.1884 237.958 36.9432C237.634 36.7393 237.344 36.4855 237.099 36.1912C236.896 35.948 236.737 35.6711 236.63 35.3732C236.544 35.1365 236.506 34.8848 236.519 34.6332M246.643 28.9702H248.4V37.5112H246.64L246.643 28.9702ZM250.299 33.3532L250.286 32.6142L256.042 37.5142H253.5L248.378 33.0262L252.932 28.9732H255.427L250.299 33.3532ZM256.992 37.5112L261 28.9802H262.9L266.953 37.5212H265.039L261.528 29.8212H262.372L258.887 37.5212L256.992 37.5112ZM259.117 34.1852H264.766V35.6502H259.117V34.1852ZM0 0.378209H11.355V62.6892H0V0.378209ZM23.7 31.3862L36.439 62.6862H24.193L11.85 31.3862L24.292 0.378209H36.537L23.7 31.3862ZM63.2 19.5362V11.3362C63.2 9.26221 62.607 8.67021 60.435 8.67021H55.795C53.622 8.67021 53.03 9.26221 53.03 11.3362V51.8272C53.03 53.9002 53.622 54.4932 55.795 54.4932H60.436C62.608 54.4932 63.201 53.9002 63.201 51.8272V39.5822H58.263V31.5822H74.655V53.0092C74.655 59.1312 71.496 62.7852 63.892 62.7852H52.338C44.833 62.7852 41.574 59.1312 41.574 53.0092V10.1552C41.574 3.93421 44.833 0.378209 52.338 0.378209H63.892C71.492 0.378209 74.655 3.93421 74.655 10.1552V19.5362H63.2ZM101.232 0.378209H83.642V62.6892H101.232C112.094 62.6892 117.426 56.6662 117.426 45.6062V17.4622C117.426 6.40221 112.094 0.378209 101.232 0.378209ZM106.651 46.0992C106.671 47.1613 106.542 48.221 106.268 49.2472C105.258 53.3952 102.183 54.3742 99.523 54.3742H96.777V54.3942H94.659V8.67421H96.437V8.69421H99.523C102.183 8.69421 105.258 9.67221 106.268 13.8212C106.542 14.8474 106.671 15.9071 106.651 16.9692V46.0992Z" fill="white"/>
</svg>
