<svg width="87" height="63" viewBox="0 0 87 63" fill="none" xmlns="http://www.w3.org/2000/svg">
<path d="M0 0H8.3891V45.9488H0V0ZM17.5079 22.866L26.9193 45.9488H17.8734L8.7546 22.866L17.9462 0H26.9921L17.5079 22.866ZM46.6903 14.1275V8.08422C46.6903 6.55488 46.252 6.1187 44.647 6.1187H41.2185C39.6135 6.1187 39.1752 6.55488 39.1752 8.08422V37.94C39.1752 39.4679 39.6122 39.9055 41.2185 39.9055H44.647C46.252 39.9055 46.6903 39.4679 46.6903 37.94V28.9107H43.042V23.0128H55.1522V38.815C55.1522 43.329 52.8189 46.0242 47.2015 46.0242H38.6654C33.1207 46.0242 30.7133 43.3303 30.7133 38.815V7.20916C30.7133 2.62114 33.1207 0 38.6654 0H47.2015C52.8189 0 55.1522 2.62249 55.1522 7.20916V14.1262H46.6903V14.1275ZM74.7857 0H61.7907V45.9488H74.7857C82.8106 45.9488 86.7489 41.5075 86.7489 33.3519V12.5982C86.7489 4.44262 82.8093 0 74.7857 0ZM78.7901 33.7154C78.7901 34.6309 78.693 35.3996 78.5068 36.0364C77.761 39.095 75.4884 39.8166 73.5233 39.8166H71.4948V39.8314H69.9303V6.11735H71.2439V6.13216H73.5233C75.4884 6.13216 77.7596 6.85375 78.5068 9.91242C78.6916 10.5492 78.7901 11.3166 78.7901 12.2334V33.7141V33.7154Z" fill="white"/>
<path d="M0 52.123H6.61282C9.84842 52.123 10.8357 53.3953 10.8357 54.8586C10.8357 55.8602 10.2625 56.7986 9.03379 57.1015V57.1176C10.628 57.3721 11.3765 58.3898 11.3765 59.5032C11.3765 61.3166 10.2611 62.5888 7.10511 62.5888H0V52.123ZM6.91494 56.5132C8.22185 56.5132 8.90701 55.9881 8.90701 55.1454C8.90701 54.3026 8.23804 53.7776 6.48469 53.7776H2.19843V56.5132H6.91494ZM6.82052 60.9342C8.63726 60.9342 9.30623 60.2975 9.30623 59.312C9.30623 58.5325 8.50913 57.9604 7.0107 57.9604H2.19978V60.9342H6.82052Z" fill="white"/>
<path d="M13.0332 57.8958V52.123H15.233V57.6427C15.233 59.9649 16.6667 60.9827 19.1686 60.9827C21.6705 60.9827 23.1527 59.9649 23.1527 57.6427V52.123H25.161V57.8958C25.161 61.2048 22.9153 62.7799 19.1052 62.7799C15.295 62.7799 13.0346 61.2048 13.0346 57.8958H13.0332Z" fill="white"/>
<path d="M27.2588 52.123H29.441V62.5888H27.2588V52.123Z" fill="white"/>
<path d="M31.6396 52.123H33.8394V60.7915H40.6586V62.5888H31.6396V52.123Z" fill="white"/>
<path d="M42.2021 52.1234H47.3489C52.2879 52.1234 53.8188 54.5413 53.8188 57.3549C53.8188 60.6802 52.145 62.5878 47.7953 62.5878H42.2021V52.1221V52.1234ZM47.7306 60.8552C50.5198 60.8552 51.6338 59.6624 51.6338 57.3563C51.6338 55.4163 50.6465 53.8574 47.4271 53.8574H44.3992V60.8552H47.7292H47.7306Z" fill="white"/>
<path d="M55.6338 52.123H57.8174V62.5888H55.6338V52.123Z" fill="white"/>
<path d="M60.0146 52.123H63.1383L70.3567 59.6297H70.3891V52.123H72.4917V62.5888H70.3257L62.151 54.0482H62.1349V62.5888H60.0146V52.123Z" fill="white"/>
<path d="M74.2406 57.4832C74.2406 54.5255 76.3595 51.9326 80.7577 51.9326C85.1559 51.9326 86.6206 53.9843 86.6206 55.8933C86.6206 55.9565 86.6206 56.0521 86.6044 56.1962H84.6123C84.6285 56.1006 84.6285 56.0373 84.6285 55.9727C84.6285 54.8755 83.6251 53.6666 80.8049 53.6666C77.9847 53.6666 76.4701 55.383 76.4701 57.4993C76.4701 59.4878 77.777 61.1585 80.7887 61.1585C83.5927 61.1585 84.5651 59.7584 84.5651 58.7877V58.7406H80.3436V57.3553H86.7487V62.5882H84.932C84.9482 62.1749 84.9954 61.2527 85.0116 60.4571H84.9954C84.5476 61.9675 82.9871 62.7793 80.5486 62.7793C76.0398 62.7793 74.2393 60.2026 74.2393 57.4819L74.2406 57.4832Z" fill="white"/>
</svg>
